<svg width="32" height="32" xmlns="http://www.w3.org/2000/svg" version="1.1" clip-rule="evenodd"><g><g id="svg_1"><path fill="#fef100" d="m2.03691,-0.05257c9.3333,0 18.6667,0 28,0c0.3333,1 1,1.66667 2,2c0,9.3333 0,18.6667 0,28c-1,0.3333 -1.6667,1 -2,2c-9.3333,0 -18.6667,0 -28,0c-0.33333,-1 -1,-1.6667 -2,-2c0,-9.3333 0,-18.6667 0,-28c1,-0.33333 1.66667,-1 2,-2z" opacity="0.973" id="svg_2"/></g><g id="svg_3"><path fill="#8d5514" d="m5.5,4.5c1.33333,0 2.66667,0 4,0c0,1.33333 0,2.66667 0,4c-1.33333,0 -2.66667,0 -4,0c0,-1.33333 0,-2.66667 0,-4z" id="svg_4"/></g><g id="svg_5"><path fill="#8e5514" d="m22.5,4.5c1.3333,0 2.6667,0 4,0c0,1.33333 0,2.66667 0,4c-1.3333,0 -2.6667,0 -4,0c0,-1.33333 0,-2.66667 0,-4z" id="svg_6"/></g><g id="svg_7"><path fill="#000000" d="m6.5,16.5c0,1 0,2 0,3c1,0 2,0 3,0c0,2.6667 0,5.3333 0,8c-2.33333,0 -4.66667,0 -7,0c0,-3.6667 0,-7.3333 0,-11c1.33333,0 2.66667,0 4,0z" id="svg_8"/></g><g id="svg_9"><path fill="#8efffd" d="m25.5,16.5c0,1 0,2 0,3c-1,0 -2,0 -3,0c0,-1 0,-2 0,-3c1,0 2,0 3,0z" id="svg_10"/></g><g id="svg_11"><path fill="#000000" d="m25.5,16.5c1.3333,0 2.6667,0 4,0c0,3.6667 0,7.3333 0,11c-2.3333,0 -4.6667,0 -7,0c0,-2.6667 0,-5.3333 0,-8c1,0 2,0 3,0c0,-1 0,-2 0,-3z" id="svg_12"/></g><g id="svg_13"><path fill="#8ffffd" d="m6.62543,16.43748c1,0 2,0 3,0c0,1 0,2 0,3c0,-1 0,-2 0,-3c-1,0 -2,0 -3,0z" id="svg_14"/></g><g id="svg_15"><path fill="#936d0c" d="m13,26.5c2,0 4,0 6,0c0,1 0,2 0,3c-2,0 -4,0 -6,0c0,-1 0,-2 0,-3z" id="svg_16"/></g><ellipse fill="#fef100" stroke="null" cx="1.95078" cy="2.79195" id="svg_24" rx="0.17897" ry="0.13423"/><ellipse stroke="null" fill="#fef100" cx="30.02685" cy="29.9923" id="svg_27" rx="1.91817" ry="1.9387"/><g id="svg_29"><path fill="#8efffd" d="m9.5,16.5c0,1 0,2 0,3c-1,0 -2,0 -3,0c0,-1 0,-2 0,-3c1,0 2,0 3,0z" id="svg_28"/></g><ellipse stroke="null" fill="#fef100" cx="1.99004" cy="29.9923" id="svg_17" rx="1.91817" ry="1.9387"/><ellipse stroke="null" fill="#fef100" cx="2.05139" cy="2.01684" id="svg_18" rx="1.91817" ry="1.9387"/><ellipse stroke="null" fill="#fef100" cx="30.02685" cy="1.95549" id="svg_19" rx="1.91817" ry="1.9387"/></g></svg>